<svg version="1" xmlns="http://www.w3.org/2000/svg" width="2302pt" height="2302pt" viewBox="0 0 2302.000000 2302.000000"><path d="M0 1151v1000h2000v-1424h20.8v29.7c.1 16.4.1 30.4.1 31 .1 1 4.9 1.3 20.6 1.3h20.5v-62h34.5c22.3 0 34.5.4 34.6 1 .1.5.2 1.3.4 1.7.1.5.5 2.6.9 4.8 7 36 33.8 60 65.1 58.2 15.7-.9 29-7.2 40.1-19l6.4-6.7v22l19.2-.2 19.1-.3v-61.5h18.700000000000003v-31.8l-6.7.1c-3.8 0-8-.1-9.4-.2l-2.6-.1-.1-58.3c0-32-.1-59.2-.1-60.5l-.1-2.2h-41v76.4l-4.7-4.6c-10.5-10.2-23-15.7-37.3-16.5-25.6-1.5-48.3 11.9-59.3 34.8-4.1 8.5-6.9 17.8-8.1 26.7-.3 1.9-.7 3.7-1 4-.8.7-65.4.7-66.2 0-.9-1 2.8-13 5.6-17.8 6.4-11 20-13.9 33.4-7.1l5.4 2.7 5.7-15.5c7.8-21.5 7.7-20.5 1.9-23-13-5.8-26.8-6.5-36.1-1.9-5.3 2.6-11.8 8.9-17.1 16.7l-3.7 5.4-.3-10.7-.3-10.6h-18.9c-17.4 0-19 .1-19.1 1.7 0 1 0 15-.1 31 0 16.1-.3 29.3-.7 29.4-.3 0-5 .1-10.4.2l-9.7.2v-544.5h-2000v1000zm1980-731.9v248l-5-6.6c-12.3-16.3-29-26.7-48-30.1-5.5-1-27.1-1.2-32.5-.2-24.3 4.2-44.2 18.5-54.7 39.2-3.7 7.3-7.8 19-7.8 22.3 0 1.3-.7 2.6-1.7 3-1.3.5-34.5.8-42.8.4-1.9-.1-2-.7-2-14.9v-14.7l15.3-.3c13.6-.2 15.2-.4 15.3-2 .3-5.5.4-27.9.1-29-.3-.9-4.2-1.2-15.2-1.2-10.9 0-14.9-.3-15.2-1.3-.3-.6-.4-3.9-.3-7.3.7-19 4-22.6 20-22 4.9.2 10.5.7 12.2 1.1 3.8.9 3.3 1.9 6.3-13.5 1.2-6.3 2.3-12.2 2.5-13.2.3-1.5-3-2.8-11-4.4-8.9-1.7-12.2-2.1-20.5-2.3-23.9-.6-42.5 8.9-47.3 24.3-2.5 7.7-2.8 9.9-3.2 24.6-.2 6.9-.4 12.8-.4 13.2-.1.5-5.2.8-11.4.8h-11.2v32h11.2c6.2 0 11.3.3 11.4.7 0 .5.1 7 .2 14.6.2 11.5-.1 14-1.3 14.6-.8.4-10.7.6-22 .5-24.5-.2-23.3-.2-22.5-1.4.6-.9 8-23.8 14.9-46 1.8-5.8 3.6-11.5 4-12.8l.7-2.2h-40.7l-4.6 16.2c-2.6 9-6.6 22.8-8.9 30.8-2.3 8-4.3 14.7-4.5 14.9-.9.9-20.6.6-21.3-.4-.5-.5-3.8-12.9-7.5-27.5s-7.1-28.2-7.7-30.3l-1-3.7h-39.9l-.6 2.7c-.3 1.6-2.2 8.6-4.1 15.8-1.9 7.1-3.6 13.7-3.8 14.5-.2.8-2 7.6-3.9 15.2-2 7.5-3.6 13.8-3.6 14 0 .1-5 .3-11 .3-11 0-11.1 0-11.7-2.5-.3-1.4-2.6-9.7-5-18.5-3.9-13.6-6-20.8-11.2-38.5l-.8-2.5-20-.3-20.1-.2 1.3 4.2c1.3 4.4 14.5 45.9 17 53.5 1 3.2 1.1 4.3.2 4.4-4.5.4-38 .3-38.5-.1-.4-.3-.7-5-.8-10.5-.1-28.5-4.9-38.8-22.4-47.9-9.7-5.1-19.5-6.9-39.5-7.2-25.6-.3-39.2 3-51.3 12.7-7.7 6.1-14.4 16.4-18.1 27.8-1.3 4.1-.8 4.6 5.8 5.6 2.5.3 5.3.8 6.1 1 .8.1 4.2.8 7.5 1.4 8.3 1.5 10.6 2 13.7 2.7 2.5.5 2.9.1 5.4-4.8 3.3-6.6 5.8-9.4 10.9-12.1 3.4-1.9 5.7-2.2 15.5-2.2 10.4 0 12 .3 16.5 2.5 6.2 3.3 9.5 9.3 9.6 17.6.1 3.1-.3 5.9-.7 6.4-.8.7-7.4 3.1-9.9 3.6-.5.1-3.9 1-7.5 1.9-5.8 1.6-13.3 1.8-74.7 1.9l-68.2.1.5-3c.9-5.9 3.6-13.1 6.3-17 6.4-9.4 19.8-11.9 31.9-5.9 3.4 1.7 6.2 3 6.2 2.9 0-.1 6.7-19.1 10.6-30 2-5.8 1.9-6.2-3.3-8.5-12.9-5.7-26.8-6.4-35.9-1.8-5.5 2.7-11.8 8.8-17.1 16.6l-3.8 5.5-.3-10.7-.3-10.6h-18.9c-14.5 0-19 .3-19.1 1.2 0 .7 0 14.7-.1 31 0 16.4-.3 29.8-.6 29.9-2.1.3-128.9.4-129.8.1-1.5-.4 1-12.1 3.7-17.4 5.4-10.7 14.5-16.1 27.6-16.4 7.6-.2 8.9 0 14.6 2.9 7.1 3.6 12.1 9.9 13.2 16.7.4 2.2.9 4 1.1 4 .3 0 5.8-.9 12.2-2.1 6.4-1.1 12.6-2.2 13.7-2.3 2.7-.5 10.8-1.9 11.8-2.2.4-.1 1.2-.2 1.7-.3 1.3-.1.4-4-2.7-10.9-8-18.2-20.5-29.2-39.2-34.9-7.2-2.1-10.9-2.6-22.6-2.9-16.3-.3-25 1.1-36.1 5.7-20.8 8.7-36.4 28.4-40.6 51.8-.6 3.6-1.1 6.9-1 7.3.2.9-.2 1-18.7 1.2-8.8 0-14.5-.3-14.7-.9-.1-.6-.5-6.3-.8-12.7-.3-6.4-.8-12.2-1.1-13-.2-.7-.7-2.7-.9-4.3-.9-5.3-7.4-17-11.8-21.4-5.1-5-15.9-10.6-24.3-12.6-7.7-1.7-21-1.7-28.3.2-9.1 2.3-19.5 8-26.3 14.4-3.5 3.2-6.5 5.9-6.8 5.9-.3 0-.6-17.2-.6-38.2v-38.3l-20.6-.3-20.6-.2.1 60.1c.1 39.1-.2 60.3-.9 60.7-.5.3-13.3.6-28.2.7-23.6 0-27.3-.2-27.4-1.5-.1-2.4-.1-25.3 0-27.3.1-1.5 1.5-1.7 14.1-1.7h14v-31.9l-14.2-.3-14.1-.3v-26.7c0-14.7-.3-26.6-.6-26.4-1.6.9-27.5 15.9-33.6 19.4l-7 4.1v14.8l-.1 14.8-9.4.5-9.5.5v31.5h19v14.3c0 7.8-.3 14.6-.7 15.2-.7 1.1-156.3 1.3-157.5.2-.3-.4 23.7-.7 53.5-.7h54.2v-36h-107.69999999999999v-48h115.69999999999999v-36h-159v60.5c0 56.9-.1 60.5-1.7 60.6-1 .1-6 .1-11 .1l-9.3.1v31.700000000000003h22v62h81.5c76.9 0 81.5-.1 81.6-1.8.1-2.3.1-29.1 0-32l-.1-2.2h-119.69999999999999v-26h78.8c43.4 0 78.9.3 79 .7 0 .5.2 7.4.4 15.6.4 16.1.8 19.7 3 27.3 5.2 18 25.6 25.8 54.5 20.8 4.1-.7 9.3-2 11.4-2.9l3.8-1.6-.6-6.2c-.3-3.4-.8-7.6-1-9.3-.3-1.7-.8-6-1.1-9.5-.4-3.5-.8-6.5-.9-6.7-.2-.1-2.3.5-4.7 1.4-2.4.9-7.2 1.7-10.6 1.8-5.5.1-6.6-.2-8.8-2.5-2.8-2.8-3.4-5.8-3.8-20.7l-.2-8.2h28.2c21.9 0 28.3.3 28.4 1.2 0 .7.1 14.7.2 31v29.8h41.3l-.1-29.8c-.1-16.3.1-30.3.3-31 .3-.9 7.2-1.2 29.8-1.2h29.4v62h41v-62l16.8.2c10.2.2 16.7.7 16.8 1.3.2 2.9 1.8 9.7 3.5 15.4 7.8 25.1 26.6 42 52.7 47.5 8.9 1.9 32.5 1.4 40.7-.8 20.6-5.6 35.9-19.2 44-39.3 4.4-11 5-15.4 2-15.9-1.1-.2-4.9-.8-8.5-1.4-3.6-.7-7.8-1.4-9.5-1.7-1.6-.2-6.5-1.1-10.9-1.9-4.3-.7-8-1.4-8.2-1.4-.2 0-1.2 3-2.3 6.8-3.7 12.3-9.4 19-18.8 21.8-17.2 5.2-34.9-4.5-39.8-21.6-.9-3-1.8-6.3-2.1-7.3-.5-1.6 3.1-1.7 65-1.7h65.4l-.1 31-.2 31h41.5v-62h70.8l-2 5.7c-3.7 10.6-2.4 25.3 3.2 36.4 3.1 6.1 12.4 14.9 19 18.1 15.3 7.5 37.1 7.6 53.4.4 6.5-2.9 15.3-8.5 19-12.3 1.4-1.4 2.8-2.4 3.1-2.2.2.3 1.5 3.8 2.7 7.9l2.4 7.5 20.6.3 20.7.2-2.3-5.2c-5.3-12.1-6.7-20.3-7.1-42.5l-.2-14.3h50.6l4.6 14.7c2.6 8.2 5.7 17.9 6.9 21.8 1.3 3.8 3.6 11.2 5.1 16.2l2.9 9.3h40.2l8-30.8 8.1-30.7 10.1-.3 10.1-.3 1.5 5.3c.8 2.9 3.1 11.4 5.1 18.8 5 19 6.2 23.6 8.3 31l1.8 6.5 19.7.3c19.7.2 19.7.2 20.7-2 .5-1.3 3.7-11.1 7.1-21.8 3.3-10.7 7.4-23.7 9.1-28.8l2.9-9.2h27.9c25.6 0 27.8.1 28.1 1.7.3 1 .4 15 .3 31v29.3h41.2l-.1-30.1c0-16.5.3-30.5.6-31 .3-.6 9.9-.8 22.9-.7l22.3.3.4 2.8c.2 1.6 1.5 6.5 2.9 10.9 6.2 19.4 18 33.4 35.9 42.3 13.5 6.7 23.3 9 39 8.9 14.6 0 18.7-.5 28.6-3.9 14.3-4.8 30.5-17.4 38.7-29.9l3.2-4.9v1377.3000000000002h-1960v-1960h1960v248.1zm-1020.8 244.3c7.1 3.4 11.5 9.6 12.3 17.5 1.3 11.6 1.4 14.1.2 14.2-4.2.3-52.7.3-54.8.1-2.4-.4-2.6-.8-2.2-3.5 2.8-19.6 15.7-31.2 33.8-30.4 4 .2 8.6 1.1 10.7 2.1zm1261.4.9c5.7 3 11.4 8.6 14.3 14.2 2.7 5.3 5.3 15.7 4.2 16.4-.5.3-15.5.6-33.3.5h-32.3l.3-2.5c1.7-13.5 11-26 22.4-30.1 7.3-2.6 17.6-1.9 24.4 1.5zm-295.5 2.1c9.5 4.4 17.1 13.6 20.2 24.1l1.4 5-36.1-.1h-36.1l.3-3c.5-4.3 4.5-12.3 8.7-17.2 9.9-11.5 27.9-15.3 41.6-8.8zm-321.8 26.5c.3 1.3-.1 2.1-1.2 2.4-1.4.3-1.6-.1-1.3-2.4.5-3.1 1.7-3.1 2.5 0zm-178.6 42c-.7 11-3.4 16-12.2 22.6-8.1 6.1-22.7 8-30.5 4.1-14.1-7.2-16.1-26.1-3.5-33.4 1.3-.8 9.4-1.1 24.4-1.2h22.4l-.6 7.9zm132.2-6.2c0 1.7-1.7 6.4-1.8 5.3-.1-.3-.5-2-1-3.8-.9-2.8-.7-3.2 1-3.2 1.2 0 1.9.7 1.8 1.7zm92.5 1c-.9 3.7-2.4 5.3-2.4 2.6 0-1.2-.3-2.8-.6-3.7-.4-1.2 0-1.6 1.5-1.6 1.8 0 2 .4 1.5 2.7zm295.6 2.7c-6.1 17.8-20.9 27.9-38.3 26.2-15.1-1.4-28.3-13.4-32.3-29.1l-.6-2.5h73.1l-1.9 5.4zm294.4-2.7c-3 13.8-9.7 23.3-20 28.4-7.2 3.5-18.9 3.4-26.1-.3-2.8-1.4-6.8-4.4-8.8-6.5-4.4-4.6-9.2-14.3-10-20.1l-.6-4.2h66.1l-.6 2.7zM600.6 860.2c-.2.7-1.8 8-3.5 16.1-5.4 24.9-11.2 41.8-18.4 52.9-3.5 5.5-3.9 5.8-7.7 5.8-2.2 0-4 .2-4 .3 0 .5-3.8 18.4-4.9 22.9l-.9 3.8h5.4c3.9 0 5.4-.4 5.4-1.4 0-.7.7-4.6 1.6-8.5l1.6-7.1h59.5l-1.7 8.5-1.7 8.5h4.8c5.4 0 5.6-.2 6.5-5.6.3-2.2.7-4.4.8-4.9.2-.6.8-3.7 1.5-7s1.5-6.8 1.7-7.8c.4-1.3-.1-1.7-2-1.7-1.4 0-2.6-.4-2.6-1 0-.9 3.4-17.2 8.5-40.5 1.3-6.1 2.6-12.1 2.9-13.5 1-5.5 3.7-17.6 4.2-19.3.5-1.6-1.3-1.7-28.1-1.7-22 0-28.6.3-28.9 1.2zm43 11.3c-.4 1.4-2.2 10-4.2 19.2-1.9 9.3-3.9 18.6-4.4 20.8-1.1 5-4 18.2-4.6 21.2-.4 2.3-.4 2.3-22 2.3h-21.5l2.1-3c5.4-7.5 14-31.4 19.2-53 1.1-4.7 2.2-8.8 2.5-9.3.2-.4 7.9-.7 17-.7h16.5l-.6 2.5zM1647 861c0 2.8 3.6 9.3 6.1 11.1 1.7 1.2 5.2 2.3 8.4 2.6 4.6.5 6.2.2 10.9-2.2 4.3-2.1 6-3.8 8.1-7.6l2.6-4.9h-3.5c-2.5 0-4.3.8-6.4 2.9-5.3 5.3-15.4 5.2-18-.2-1-2.2-2-2.7-4.8-2.7-1.8 0-3.4.4-3.4 1zM680.5 883.1c-5.9 2.2-11.6 7.3-14.4 12.7l-2 4 3.1.6c5.7 1.1 7.2.6 10.3-3.7 5.1-6.9 12.6-9.3 21.5-6.6 4.8 1.4 7.1 5.2 6.4 10.5-.5 4.5-2.5 6.3-6.8 6.5-25.2 1.1-32.7 3.4-37.5 11.4-6.2 10.2-1.2 23.5 9.9 26.5 8 2.1 15.4.6 24.4-5l3.4-2 .6 3.5.7 3.5h5.5c5.3 0 5.5-.1 4.8-2.3-1.5-4.7-.6-12.8 3.4-29.6 1.2-4.9 2-11.4 1.9-15.2-.2-7.7-2-10.5-9.2-14.2-5.7-2.9-19.1-3.3-26-.6zm22 32.1c-3.2 16.5-15.1 26-27.3 21.7-4.4-1.5-6.5-5.2-5.9-10.5.7-6.7 5-9.6 16.2-10.8 10.6-1.2 15-1.8 15.4-2.2 1.1-1.1 1.9-.2 1.6 1.8zM832.1 883c-7.5 2.7-13.3 7.9-17.3 15.4-9.6 18.4-6.5 37.7 7.2 44.8 3.6 1.9 6 2.3 12.5 2.3 6.9-.1 8.7-.5 13.4-3 2.9-1.6 6.9-4.8 8.8-7 3.6-4.1 6.7-9.4 6.1-10.1-.2-.2-2.7-.6-5.6-1-4.3-.5-5.2-.3-5.2.9 0 2.7-8.5 10.5-12.6 11.6-5.2 1.5-7 1.4-11-.5-4.6-2.2-7.3-7-8.1-14.3l-.5-6.1h23c26 0 24.2.6 24.2-8.4 0-20.1-16-31.4-34.9-24.6zm17.6 7.9c4.4 2.7 6.3 5.9 7 12l.6 5.1h-35.3l1.8-4.5c4.6-11.6 17.3-17.8 25.9-12.6zM999.4 882.4c-14.1 4.5-23.6 19.1-23.8 36.6-.1 9.8 1.9 15.4 7.5 20.8 8.9 8.7 26.7 7.8 37.4-2 3.8-3.4 9.1-11.5 8.2-12.4-.3-.3-2.6-.7-5.1-1-4.4-.4-4.7-.3-7 3.4-5.1 8.2-16.1 12.4-22.6 8.6-4.5-2.7-7.1-7.5-7.7-14.4l-.6-5.9 22.7-.1c12.5 0 23.1-.2 23.6-.5.4-.3.8-3.8.8-7.8 0-7.9-2.4-15.5-6.1-19.6-5.5-6-18.1-8.6-27.3-5.7zm17.5 9.3c3.3 2.5 5.3 6.5 5.9 12l.5 4.3h-35.1l.6-2.3c2.1-6.8 8.5-13.9 14.6-15.9 3.5-1.2 10.7-.1 13.5 1.9zM1098.5 882.7c-7 2.5-10.7 5.4-14.8 11.5-4.2 6.4-6.6 13.2-7.5 21.3-1.5 12.2 1.9 21.5 9.6 26.9 4 2.8 5 3.1 12.5 3.1 9.3 0 13.7-1.7 19.8-7.9 3.6-3.6 8.7-13.1 7.6-14.2-.3-.3-2.5-.8-5-1-4.4-.5-4.4-.5-6.8 4.2-6.6 12.7-20.6 15.1-25.5 4.2-3.4-7.5-1.2-23.6 4.4-32.8 7.7-12.5 24.9-11.5 26.5 1.5.4 2.9.6 3 5.3 3l4.9-.1-.2-4.6c-.1-5.7-3.4-10.9-8.7-13.9-5.4-3-15.4-3.6-22.1-1.2zM1230 883.1c-2.5 1.1-5.7 3.2-7.2 4.6-3 2.9-3.3 2.5-1.9-2.5l1-3.3-5.2.3-5.1.3-4.8 23c-2.6 12.6-5 24.6-5.4 26.5-.3 1.9-.9 5.1-1.4 7-.5 1.9-1.6 7.1-2.5 11.5-.9 4.4-1.9 8.9-2.1 10-.2 1.1-.7 3.5-1 5.2l-.5 3.3h10.6l1.9-9.3c1-5 1.9-9.7 2-10.2.2-.6.9-3.8 1.6-7.3l1.3-6.3 3.8 3.9c4.6 4.9 9.5 6.6 16.1 5.9 19-2.3 32.8-28.7 26.3-50.3-3.5-11.8-16.1-17.5-27.5-12.3zm11.8 7.9c8 4.9 9 19.2 2.3 33.5-4.9 10.4-11.3 14.9-18.7 13.1-7.2-1.8-10.3-6.4-10.5-15.7-.5-21.4 14.4-38.5 26.9-30.9zM1290.9 882.4c-6.5 2-12.7 7.3-16 13.8-1.4 2.8-1.6 3.8-.7 3.9.7 0 3.1.2 5.3.5 3.6.5 4.2.2 5.8-2.5.9-1.6 3-4.1 4.7-5.4 5.5-4.7 16.5-4.7 22-.1 2.6 2.2 2.8 3 2.5 7.2-.5 5.4-2.2 7.2-7.4 7.3-6.6.1-21.2 1.7-24.9 2.5-4.4 1.1-9.8 5-12.1 8.8-3.9 6.2-3.1 16.5 1.6 21.8 6.5 7.4 22 7.5 32 .1 1.7-1.2 3.4-2.3 3.6-2.3.3 0 .8 1.6 1.1 3.5.7 3.5.7 3.5 5.9 3.5h5.3l-.4-6.3c-.4-6.2 0-9 3.8-26.2 1-5 1.9-11.6 2-14.8 0-5.5-.2-6-4.2-10-3.1-3-5.7-4.6-9.4-5.5-5.8-1.5-15.1-1.4-20.5.2zm20.5 31.4c1 1.6-4.1 14.3-7 17.3-5.8 6.2-14 8.3-20.9 5.4-5.4-2.2-7.1-8.9-3.8-14.6 2.6-4.4 6.6-5.7 23.2-7.3 3-.3 5.6-.8 5.9-1.1.8-.7 2-.6 2.6.3zM1585.7 882c-8 2.1-14 6.7-17.6 13.9-1.5 2.9-1.8 4.1-.9 4.2.7 0 3.1.3 5.4.5 3.8.4 4.2.1 6.5-3.3 3.4-5.2 6.7-7.2 12.7-8 9.7-1.1 17 3.7 15.7 10.4-.2 1-.4 2.6-.4 3.6-.1 2.5-4.2 3.7-14.6 4.3-17.7 1-25.1 3.7-29.4 10.8-4.3 6.9-3 17.9 2.7 22.9 7.1 6.4 21.1 5.9 31.2-.9l3.5-2.4.8 3.5c.9 3.5.9 3.5 6.4 3.5h5.5l-.8-3.3c-.9-4.4-.9-5.4 0-11.7.8-5.3 1-6.3 2-10.5.2-1.1 1.1-4.8 1.9-8.3.9-3.5 1.5-9.4 1.4-13.2-.2-7.8-2-10.6-9.1-14.2-4.5-2.3-16.9-3.3-22.9-1.8zm18.7 33.7c-3.3 13.7-9 20.3-19.2 21.9-10.6 1.7-17.4-6.6-12.7-15.5 1.8-3.5 6.9-5.7 15.5-6.5 9.4-1 14.4-1.7 14.9-2.2 1.3-1.3 2.1 0 1.5 2.3zM732.3 882.7c-.7.2-1.3 2.2-1.3 4.4 0 3.7.1 3.8 2.9 3.3 3.6-.8 5.3 1.6 7 9.9.8 3.8 2.3 7 4.2 9.1l2.9 3.4-2.9 1.1c-4.2 1.8-10.9 8.4-19.3 19.1-10.2 13-10 12-2.5 12h6.4l9.7-12.6c8.6-11 14.1-16.4 16.9-16.4 1 0 .4 4.8-1.3 12.5-1.6 6.8-1.9 8.3-2.5 12.7l-.6 3.8h5c5.7 0 5 1.5 8.6-16 1.4-6.8 2.7-12.6 2.9-12.8.8-.8 6.4 2.8 7.8 5 .8 1.3 3.4 7.1 5.8 13l4.3 10.8h5.3c3 0 5.4-.2 5.4-.4 0-.6-9.1-22.8-10.2-25.1-1.3-2.5-5.7-6.5-7.2-6.5-.6 0 .4-.9 2.2-2 4.6-2.8 6.3-4.6 11.1-11.8 4.7-7 8.1-9.7 11.2-8.9 1.6.4 2.4-.2 3.5-3 .9-1.9 1.3-3.7 1-4-.3-.3-2.5-.8-4.9-1-7.2-.8-11.5 2.1-18.7 12.7-5.8 8.4-10.8 13-14.2 13-1.4 0-.5-6 3.7-23.8.5-2.1.2-2.2-5-2.2-4.8 0-5.5.3-5.6 2-.1 1.1-.2 2.3-.3 2.7-.4 1.4-2.6 11.7-3 13.8-1.4 7.1-1.8 7.7-4.4 7-3.5-.9-4.8-2.9-6.8-10.5-2.2-8.2-3.8-11.5-6.6-13.4-2.1-1.5-7.9-2-10.5-.9zM919.7 882.7c-.5.8-2.5 10.3-3.2 14.8-.1 1.1-1.3 6.5-2.5 12s-2.4 11-2.6 12.2c-1 5.4-1.3 7.2-2.8 14.1-.9 4-1.6 7.8-1.6 8.3 0 .5 2.4.9 5.4.9h5.3l.6-3.8c.4-2 1.6-8.3 2.8-14l2.2-10.2h14.4c13.3 0 14.4.1 13.9 1.7-.3 1-1.5 6.2-2.5 11.5-1.1 5.3-2.3 10.8-2.7 12.2-.6 2.6-.5 2.6 4.9 2.6h5.4l1.3-6.3c.7-3.4 1.4-7.1 1.6-8.2.3-1.1 2.6-12.5 5.2-25.3l4.8-23.2h-10.4l-1 4.7c-.6 2.7-1.8 8.7-2.8 13.5l-1.7 8.8h-14.3c-7.9 0-14.4-.2-14.4-.4 0-.3.7-3.3 1.4-6.8 1.5-6.5 2.2-9.6 3.2-16.1l.7-3.7h-5.1c-2.8 0-5.3.3-5.5.7zM1145.7 882.7c-.2.5-.8 2.6-1.2 4.8-.5 2.2-.9 4.2-1 4.5-.1.7-1.6 8.2-2.1 10.5-.5 3-5.5 26.7-6 29-.9 3.9-2.4 11.8-2.4 12.7 0 .5 2.3.8 5.2.6 5.7-.3 5.4.1 7.3-10.3.3-1.7 1.2-6.2 2.1-10 .9-3.9 2.8-13.1 4.3-20.5l2.6-13.5 14.3-.3 14.3-.3-.5 3.3c-.3 1.8-1.7 8.7-3.1 15.3-1.4 6.5-2.8 13.3-3.1 15-.3 1.6-1.4 6.9-2.5 11.7-1 4.8-1.9 9-1.9 9.3 0 .3 2.5.5 5.5.5s5.5-.4 5.5-.8 2.7-14 6-30.1 6-29.9 6-30.7c0-1.2-4.3-1.4-24.4-1.4-13.5 0-24.7.3-24.9.7zM1344.5 883.2c-.2.7-1.5 6.9-2.9 13.8s-2.7 13.6-3 15l-1.1 5c-.4 1.4-.8 3.4-.9 4.5-.2 1.1-.6 4.6-1.1 7.8-1.4 10.5 3.1 15.9 13.9 16.3 7.1.3 13.6-2.3 19.3-7.8 1.9-1.8 3.3-2.9 3.2-2.3-.6 2.2 2.7 6.8 6 8.4 7.6 3.7 16.1 2.3 24-3.9 4.7-3.7 5-3.8 4.1-1.4-2.1 5.4-1.5 6.4 4 6.4 5.3 0 5.2.1 6.4-7 .2-1.4 2.1-10.4 4.1-20 2.1-9.6 3.9-18.4 4.1-19.5.2-1.1.6-3.1.9-4.5.3-1.4.7-3.4.9-4.5.2-1.1.7-3.2 1.1-4.8.7-2.7.7-2.7-4.6-2.7h-5.4l-4.2 19.4c-2.3 10.7-4.9 21-5.8 22.9-3.3 7-10.7 12.6-17.5 13.4-5.3.6-7.2-1.3-7.2-7.3 0-3.8 5-30.6 8.7-46.2.5-2.1.2-2.2-5-2.2-3 0-5.5.2-5.5.4 0 .3-3.1 15.3-5.5 27.1-.3 1.1-.7 3.3-1.1 5-1.6 7.8-3.8 12.6-7.9 16.8-6 6.3-13.7 8.4-18.4 5.1-2.1-1.5-2.3-2.2-1.8-7.8.3-3.3 2.4-14.8 4.6-25.5 2.3-10.7 4.1-19.8 4.1-20.2 0-1.4-10-1.1-10.5.3zM1445.5 884.2c-.3 1.3-1.8 7.9-3.4 14.8-5.9 25.2-6.7 29.5-6.2 36.6.2 3.8 6.6 9.2 11.6 10 8.1 1.2 14.4-.9 22.4-7.4l4.4-3.6-.7 3.4c-.4 1.9-.9 4.3-1.1 5.2-.3 1.5.4 1.8 4.5 1.8 4.3 0 5-.3 5.5-2.3.2-1.2 1.2-5.4 2.1-9.2.9-3.9 1.8-8.4 2-10 .3-1.7.9-4.4 1.4-6 .5-1.7 2.3-9.5 4-17.5 1.7-8 3.4-15.3 3.6-16.3.5-1.5-.2-1.7-5-1.7h-5.5l-1.1 5.7c-4.5 22-8.1 34.6-11.5 39.7-4 6.1-9.5 9.5-16.5 10.3-4.3.5-5.2.2-7.5-2.1-3.3-3.3-3.3-3.9 2.4-28.6 1.7-7.4 3.7-16.1 4.5-19.3l1.4-5.7h-5.4c-4.7 0-5.4.3-5.9 2.2zM1528.5 882.6c-16 3.8-26.8 18.5-27.4 37.1-.5 15.7 7.7 24.8 23.3 26 9.7.7 17-1.5 22.1-6.6 4.5-4.7 6.8-11.9 5.2-16.6-1.1-3.5-5.3-8.2-7.9-9.1-2.2-.6-2.4-2.4-.3-2.4 2.9 0 8.3-3.6 10.5-6.9 4.7-7.2.3-18.1-8.3-20.8-3.4-1-13.9-1.4-17.2-.7zm14.7 10.4c2.1 2.6 2.3 6.8.4 9.2-.7 1-3 2.5-5.1 3.4-4.7 1.9-22.9 3.1-23.9 1.5-.8-1.3 2.5-7.1 6.2-10.8 6.2-6.2 18.6-8 22.4-3.3zm-6.3 25.4c5.1 2.7 5.9 10.9 1.5 15.7-2.4 2.6-8.9 4.2-14.1 3.4-8.1-1.2-13.8-9.9-12.5-18.9l.5-2.9 10.7.6c7 .3 11.9 1.1 13.9 2.1zM1637.5 889.2c-.9 4-2.9 12.7-4.5 19.3-5.9 24.9-5.7 29.4 1.7 34.5 3 2.1 4.8 2.5 10.2 2.5 7.5-.1 12.6-2.3 19-8.1l3.9-3.5-.9 3.8c-1.6 7-1.4 7.3 4 7.3h4.8l1.7-8.3c5.4-25.2 11.6-52.9 12.2-53.9.3-.4-2.1-.8-5.3-.8-4.9 0-5.9.3-6 1.7-.1 1-1.1 5.8-2.3 10.8-1.2 4.9-2.4 10.1-2.6 11.4-3.7 19.1-9.6 28-20.5 31.2-4.3 1.3-10.1.5-12-1.7-1.3-1.6-1.6-6.1-.6-10.9.9-4.7 7.6-34.1 8.1-35.6.2-.8.7-2.6 1-4.2.6-2.7.6-2.7-4.8-2.7h-5.4l-1.7 7.2z"/></svg>